dataset
version=1
nRows=28
nColumns=39
inDegrees=no
endheader
time	sternoclavicular_r2	sternoclavicular_r3	unrotscap_r3	unrotscap_r2	acromioclavicular_r2	acromioclavicular_r3	acromioclavicular_r1	unrothum_r1	unrothum_r3	unrothum_r2	elv_angle	shoulder_elv	shoulder1_r2	shoulder_rot	elbow_flexion	pro_sup	deviation	flexion	cmc_abduction	cmc_flexion	mp_flexion	ip_flexion	mcp2_flexion	mcp2_abduction	pm2_flexion	md2_flexion	mcp3_flexion	mcp3_abduction	pm3_flexion	md3_flexion	mcp4_flexion	mcp4_abduction	pm4_flexion	md4_flexion	mcp5_flexion	mcp5_abduction	pm5_flexion	md5_flexion
1.520000	-0.035632	-0.584244	0.475255	0.243699	0.156782	0.449177	-0.264664	0.240951	-0.081683	0.141254	0.138898	0.027437	0.146525	0.146525	1.180904	1.357932	0.000000	0.000000	0.000000	0.000000	0.000000	0.000000	0.000000	0.000000	0.000000	0.000000	0.000000	0.000000	0.000000	0.000000	0.000000	0.000000	0.000000	0.000000	0.000000	0.000000	0.000000	0.000000
1.525000	-0.035619	-0.584468	0.475461	0.243751	0.156836	0.449156	-0.264852	0.241221	-0.081758	0.141365	0.139031	0.027437	0.146525	0.146525	1.180569	1.359530	0.000000	0.000000	0.000000	0.000000	0.000000	0.000000	0.000000	0.000000	0.000000	0.000000	0.000000	0.000000	0.000000	0.000000	0.000000	0.000000	0.000000	0.000000	0.000000	0.000000	0.000000	0.000000
1.530000	-0.035605	-0.584699	0.475693	0.243788	0.156876	0.449129	-0.265073	0.241514	-0.081853	0.141468	0.139156	0.027437	0.146525	0.146525	1.180349	1.361161	0.000000	0.000000	0.000000	0.000000	0.000000	0.000000	0.000000	0.000000	0.000000	0.000000	0.000000	0.000000	0.000000	0.000000	0.000000	0.000000	0.000000	0.000000	0.000000	0.000000	0.000000	0.000000
1.535000	-0.035589	-0.584936	0.475951	0.243811	0.156901	0.449095	-0.265326	0.241830	-0.081969	0.141564	0.139273	0.027437	0.146525	0.146525	1.180252	1.362827	0.000000	0.000000	0.000000	0.000000	0.000000	0.000000	0.000000	0.000000	0.000000	0.000000	0.000000	0.000000	0.000000	0.000000	0.000000	0.000000	0.000000	0.000000	0.000000	0.000000	0.000000	0.000000
1.540000	-0.035572	-0.585178	0.476234	0.243818	0.156912	0.449054	-0.265611	0.242169	-0.082108	0.141651	0.139379	0.027437	0.146525	0.146525	1.180284	1.364529	0.000000	0.000000	0.000000	0.000000	0.000000	0.000000	0.000000	0.000000	0.000000	0.000000	0.000000	0.000000	0.000000	0.000000	0.000000	0.000000	0.000000	0.000000	0.000000	0.000000	0.000000	0.000000
1.545000	-0.035554	-0.585423	0.476543	0.243810	0.156908	0.449004	-0.265928	0.242527	-0.082270	0.141729	0.139475	0.027437	0.146525	0.146525	1.180455	1.366265	0.000000	0.000000	0.000000	0.000000	0.000000	0.000000	0.000000	0.000000	0.000000	0.000000	0.000000	0.000000	0.000000	0.000000	0.000000	0.000000	0.000000	0.000000	0.000000	0.000000	0.000000	0.000000
1.550000	-0.035534	-0.585671	0.476875	0.243784	0.156888	0.448945	-0.266277	0.242906	-0.082454	0.141798	0.139558	0.027437	0.146525	0.146525	1.180771	1.368038	0.000000	0.000000	0.000000	0.000000	0.000000	0.000000	0.000000	0.000000	0.000000	0.000000	0.000000	0.000000	0.000000	0.000000	0.000000	0.000000	0.000000	0.000000	0.000000	0.000000	0.000000	0.000000
1.555000	-0.035515	-0.585921	0.477230	0.243741	0.156853	0.448877	-0.266658	0.243302	-0.082663	0.141857	0.139630	0.027437	0.146525	0.146525	1.181241	1.369846	0.000000	0.000000	0.000000	0.000000	0.000000	0.000000	0.000000	0.000000	0.000000	0.000000	0.000000	0.000000	0.000000	0.000000	0.000000	0.000000	0.000000	0.000000	0.000000	0.000000	0.000000	0.000000
1.560000	-0.035495	-0.586171	0.477608	0.243681	0.156801	0.448799	-0.267071	0.243715	-0.082896	0.141905	0.139687	0.027437	0.146525	0.146525	1.181871	1.371692	0.000000	0.000000	0.000000	0.000000	0.000000	0.000000	0.000000	0.000000	0.000000	0.000000	0.000000	0.000000	0.000000	0.000000	0.000000	0.000000	0.000000	0.000000	0.000000	0.000000	0.000000	0.000000
1.565000	-0.035475	-0.586420	0.478008	0.243602	0.156732	0.448709	-0.267513	0.244143	-0.083155	0.141942	0.139730	0.027437	0.146525	0.146525	1.182669	1.373575	0.000000	0.000000	0.000000	0.000000	0.000000	0.000000	0.000000	0.000000	0.000000	0.000000	0.000000	0.000000	0.000000	0.000000	0.000000	0.000000	0.000000	0.000000	0.000000	0.000000	0.000000	0.000000
1.570000	-0.035456	-0.586668	0.478428	0.243505	0.156645	0.448608	-0.267986	0.244585	-0.083439	0.141967	0.139757	0.027437	0.146525	0.146525	1.183643	1.375495	0.000000	0.000000	0.000000	0.000000	0.000000	0.000000	0.000000	0.000000	0.000000	0.000000	0.000000	0.000000	0.000000	0.000000	0.000000	0.000000	0.000000	0.000000	0.000000	0.000000	0.000000	0.000000
1.575000	-0.035437	-0.586913	0.478868	0.243388	0.156542	0.448495	-0.268489	0.245039	-0.083748	0.141980	0.139768	0.027437	0.146525	0.146525	1.184800	1.377453	0.000000	0.000000	0.000000	0.000000	0.000000	0.000000	0.000000	0.000000	0.000000	0.000000	0.000000	0.000000	0.000000	0.000000	0.000000	0.000000	0.000000	0.000000	0.000000	0.000000	0.000000	0.000000
1.580000	-0.035419	-0.587154	0.479326	0.243252	0.156420	0.448369	-0.269020	0.245503	-0.084084	0.141980	0.139761	0.027437	0.146525	0.146525	1.186147	1.379449	0.000000	0.000000	0.000000	0.000000	0.000000	0.000000	0.000000	0.000000	0.000000	0.000000	0.000000	0.000000	0.000000	0.000000	0.000000	0.000000	0.000000	0.000000	0.000000	0.000000	0.000000	0.000000
1.585000	-0.035403	-0.587389	0.479802	0.243095	0.156281	0.448230	-0.269578	0.245974	-0.084447	0.141966	0.139736	0.027437	0.146525	0.146525	1.187690	1.381483	0.000000	0.000000	0.000000	0.000000	0.000000	0.000000	0.000000	0.000000	0.000000	0.000000	0.000000	0.000000	0.000000	0.000000	0.000000	0.000000	0.000000	0.000000	0.000000	0.000000	0.000000	0.000000
1.590000	-0.035388	-0.587618	0.480293	0.242918	0.156123	0.448076	-0.270163	0.246452	-0.084837	0.141939	0.139691	0.027437	0.146525	0.146525	1.189436	1.383556	0.000000	0.000000	0.000000	0.000000	0.000000	0.000000	0.000000	0.000000	0.000000	0.000000	0.000000	0.000000	0.000000	0.000000	0.000000	0.000000	0.000000	0.000000	0.000000	0.000000	0.000000	0.000000
1.595000	-0.035375	-0.587839	0.480798	0.242720	0.155946	0.447909	-0.270774	0.246934	-0.085254	0.141897	0.139626	0.027437	0.146525	0.146525	1.191392	1.385667	0.000000	0.000000	0.000000	0.000000	0.000000	0.000000	0.000000	0.000000	0.000000	0.000000	0.000000	0.000000	0.000000	0.000000	0.000000	0.000000	0.000000	0.000000	0.000000	0.000000	0.000000	0.000000
1.600000	-0.035364	-0.588051	0.481315	0.242501	0.155751	0.447726	-0.271408	0.247418	-0.085698	0.141841	0.139539	0.027437	0.146525	0.146525	1.193564	1.387816	0.000000	0.000000	0.000000	0.000000	0.000000	0.000000	0.000000	0.000000	0.000000	0.000000	0.000000	0.000000	0.000000	0.000000	0.000000	0.000000	0.000000	0.000000	0.000000	0.000000	0.000000	0.000000
1.605000	-0.035356	-0.588252	0.481844	0.242261	0.155537	0.447527	-0.272066	0.247902	-0.086170	0.141769	0.139430	0.027437	0.146525	0.146525	1.195958	1.390005	0.000000	0.000000	0.000000	0.000000	0.000000	0.000000	0.000000	0.000000	0.000000	0.000000	0.000000	0.000000	0.000000	0.000000	0.000000	0.000000	0.000000	0.000000	0.000000	0.000000	0.000000	0.000000
1.610000	-0.035351	-0.588443	0.482383	0.242000	0.155304	0.447313	-0.272746	0.248384	-0.086669	0.141681	0.139298	0.027437	0.146525	0.146525	1.198580	1.392231	0.000000	0.000000	0.000000	0.000000	0.000000	0.000000	0.000000	0.000000	0.000000	0.000000	0.000000	0.000000	0.000000	0.000000	0.000000	0.000000	0.000000	0.000000	0.000000	0.000000	0.000000	0.000000
1.615000	-0.035349	-0.588621	0.482929	0.241716	0.155052	0.447082	-0.273446	0.248861	-0.087196	0.141577	0.139143	0.027437	0.146525	0.146525	1.201434	1.394496	0.000000	0.000000	0.000000	0.000000	0.000000	0.000000	0.000000	0.000000	0.000000	0.000000	0.000000	0.000000	0.000000	0.000000	0.000000	0.000000	0.000000	0.000000	0.000000	0.000000	0.000000	0.000000
1.620000	-0.035350	-0.588786	0.483482	0.241411	0.154782	0.446834	-0.274164	0.249331	-0.087751	0.141456	0.138962	0.027437	0.146525	0.146525	1.204527	1.396799	0.000000	0.000000	0.000000	0.000000	0.000000	0.000000	0.000000	0.000000	0.000000	0.000000	0.000000	0.000000	0.000000	0.000000	0.000000	0.000000	0.000000	0.000000	0.000000	0.000000	0.000000	0.000000
1.625000	-0.035354	-0.588936	0.484039	0.241084	0.154492	0.446569	-0.274900	0.249792	-0.088332	0.141318	0.138756	0.027437	0.146525	0.146525	1.207863	1.399139	0.000000	0.000000	0.000000	0.000000	0.000000	0.000000	0.000000	0.000000	0.000000	0.000000	0.000000	0.000000	0.000000	0.000000	0.000000	0.000000	0.000000	0.000000	0.000000	0.000000	0.000000	0.000000
1.630000	-0.035363	-0.589071	0.484598	0.240736	0.154184	0.446286	-0.275652	0.250242	-0.088941	0.141163	0.138524	0.027437	0.146525	0.146525	1.211447	1.401517	0.000000	0.000000	0.000000	0.000000	0.000000	0.000000	0.000000	0.000000	0.000000	0.000000	0.000000	0.000000	0.000000	0.000000	0.000000	0.000000	0.000000	0.000000	0.000000	0.000000	0.000000	0.000000
1.635000	-0.035375	-0.589190	0.485159	0.240365	0.153856	0.445985	-0.276417	0.250679	-0.089577	0.140991	0.138265	0.027437	0.146525	0.146525	1.215282	1.403932	0.000000	0.000000	0.000000	0.000000	0.000000	0.000000	0.000000	0.000000	0.000000	0.000000	0.000000	0.000000	0.000000	0.000000	0.000000	0.000000	0.000000	0.000000	0.000000	0.000000	0.000000	0.000000
1.640000	-0.035391	-0.589291	0.485719	0.239972	0.153510	0.445665	-0.277195	0.251100	-0.090240	0.140800	0.137979	0.027437	0.146525	0.146525	1.219373	1.406382	0.000000	0.000000	0.000000	0.000000	0.000000	0.000000	0.000000	0.000000	0.000000	0.000000	0.000000	0.000000	0.000000	0.000000	0.000000	0.000000	0.000000	0.000000	0.000000	0.000000	0.000000	0.000000
1.645000	-0.035412	-0.589375	0.486275	0.239558	0.153146	0.445327	-0.277984	0.251503	-0.090929	0.140591	0.137665	0.027437	0.146525	0.146525	1.223723	1.408868	0.000000	0.000000	0.000000	0.000000	0.000000	0.000000	0.000000	0.000000	0.000000	0.000000	0.000000	0.000000	0.000000	0.000000	0.000000	0.000000	0.000000	0.000000	0.000000	0.000000	0.000000	0.000000
1.650000	-0.035437	-0.589440	0.486827	0.239121	0.152763	0.444971	-0.278782	0.251886	-0.091644	0.140364	0.137322	0.027437	0.146525	0.146525	1.228336	1.411389	0.000000	0.000000	0.000000	0.000000	0.000000	0.000000	0.000000	0.000000	0.000000	0.000000	0.000000	0.000000	0.000000	0.000000	0.000000	0.000000	0.000000	0.000000	0.000000	0.000000	0.000000	0.000000
1.655000	-0.035466	-0.589486	0.487373	0.238664	0.152363	0.444595	-0.279587	0.252247	-0.092384	0.140119	0.136950	0.027437	0.146525	0.146525	1.233213	1.413943	0.000000	0.000000	0.000000	0.000000	0.000000	0.000000	0.000000	0.000000	0.000000	0.000000	0.000000	0.000000	0.000000	0.000000	0.000000	0.000000	0.000000	0.000000	0.000000	0.000000	0.000000	0.000000
